<svg width="37" height="37" viewBox="0 0 37 37" fill="none" xmlns="http://www.w3.org/2000/svg">
<mask id="mask0_277_2289" style="mask-type:alpha" maskUnits="userSpaceOnUse" x="0" y="0" width="37" height="37">
<rect x="0.694336" y="0.12793" width="36" height="36" fill="#D9D9D9"/>
</mask>
<g mask="url(#mask0_277_2289)">
<path d="M12.6943 24.1279C13.5193 24.1279 14.2256 23.8342 14.8131 23.2467C15.4006 22.6592 15.6943 21.9529 15.6943 21.1279C15.6943 20.3029 15.4006 19.5967 14.8131 19.0092C14.2256 18.4217 13.5193 18.1279 12.6943 18.1279C11.8693 18.1279 11.1631 18.4217 10.5756 19.0092C9.98809 19.5967 9.69434 20.3029 9.69434 21.1279C9.69434 21.9529 9.98809 22.6592 10.5756 23.2467C11.1631 23.8342 11.8693 24.1279 12.6943 24.1279ZM24.6943 24.1279C25.5193 24.1279 26.2256 23.8342 26.8131 23.2467C27.4006 22.6592 27.6943 21.9529 27.6943 21.1279C27.6943 20.3029 27.4006 19.5967 26.8131 19.0092C26.2256 18.4217 25.5193 18.1279 24.6943 18.1279C23.8693 18.1279 23.1631 18.4217 22.5756 19.0092C21.9881 19.5967 21.6943 20.3029 21.6943 21.1279C21.6943 21.9529 21.9881 22.6592 22.5756 23.2467C23.1631 23.8342 23.8693 24.1279 24.6943 24.1279ZM18.6943 15.1279C19.5193 15.1279 20.2256 14.8342 20.8131 14.2467C21.4006 13.6592 21.6943 12.9529 21.6943 12.1279C21.6943 11.3029 21.4006 10.5967 20.8131 10.0092C20.2256 9.42168 19.5193 9.12793 18.6943 9.12793C17.8693 9.12793 17.1631 9.42168 16.5756 10.0092C15.9881 10.5967 15.6943 11.3029 15.6943 12.1279C15.6943 12.9529 15.9881 13.6592 16.5756 14.2467C17.1631 14.8342 17.8693 15.1279 18.6943 15.1279ZM18.6943 33.1279C16.6193 33.1279 14.6693 32.7342 12.8443 31.9467C11.0193 31.1592 9.43184 30.0904 8.08184 28.7404C6.73184 27.3904 5.66309 25.8029 4.87559 23.9779C4.08809 22.1529 3.69434 20.2029 3.69434 18.1279C3.69434 16.0529 4.08809 14.1029 4.87559 12.2779C5.66309 10.4529 6.73184 8.86543 8.08184 7.51543C9.43184 6.16543 11.0193 5.09668 12.8443 4.30918C14.6693 3.52168 16.6193 3.12793 18.6943 3.12793C20.7693 3.12793 22.7193 3.52168 24.5443 4.30918C26.3693 5.09668 27.9568 6.16543 29.3068 7.51543C30.6568 8.86543 31.7256 10.4529 32.5131 12.2779C33.3006 14.1029 33.6943 16.0529 33.6943 18.1279C33.6943 20.2029 33.3006 22.1529 32.5131 23.9779C31.7256 25.8029 30.6568 27.3904 29.3068 28.7404C27.9568 30.0904 26.3693 31.1592 24.5443 31.9467C22.7193 32.7342 20.7693 33.1279 18.6943 33.1279ZM18.6943 30.1279C22.0443 30.1279 24.8818 28.9654 27.2068 26.6404C29.5318 24.3154 30.6943 21.4779 30.6943 18.1279C30.6943 14.7779 29.5318 11.9404 27.2068 9.61543C24.8818 7.29043 22.0443 6.12793 18.6943 6.12793C15.3443 6.12793 12.5068 7.29043 10.1818 9.61543C7.85684 11.9404 6.69434 14.7779 6.69434 18.1279C6.69434 21.4779 7.85684 24.3154 10.1818 26.6404C12.5068 28.9654 15.3443 30.1279 18.6943 30.1279Z" fill="#D197B1"/>
</g>
</svg>
