<svg width="409" height="282" viewBox="0 0 409 282" fill="none" xmlns="http://www.w3.org/2000/svg">
<path d="M28.7347 122.939C32.138 115.719 42.6021 113.031 49.0587 117.723C52.3347 120.092 54.6406 123.973 58.4891 125.197C63.4508 126.787 69.1123 123.352 73.9468 125.324C81.3416 128.362 80.3556 140.957 87.7028 144.09C90.3586 145.219 93.4437 144.726 96.179 145.617C102.922 147.779 105.403 157.178 112.257 158.943C118.125 160.454 124.232 155.492 130.1 156.987C134.505 158.116 137.717 162.665 142.25 162.792C147.816 162.951 150.965 156.764 154.034 152.121C158.852 144.805 167.042 139.239 175.805 138.794C189.163 138.11 189.847 151.246 197.99 150.801C190.07 159.182 185.585 148.113 178.524 153.059C175.773 154.983 173.404 159.452 171.941 162.49C168.951 168.708 173.006 175.991 172.577 182.877C172.052 191.274 164.705 197.953 156.69 200.577C148.69 203.185 140.055 202.644 131.627 202.406C123.214 202.167 114.42 202.374 106.945 206.27C100.839 209.451 96.3381 215.907 89.627 217.402C70.2891 221.68 70.798 209.467 61.463 208.56C52.1757 207.654 45.6078 212.775 38.3719 210.373C27.5102 206.747 23.8207 212.17 17.7299 207.59C11.6391 203.01 7.39302 195.44 8.39491 187.886C9.12644 182.4 12.4661 177.248 11.7822 171.761C11.162 166.672 7.2658 162.712 4.5146 158.387C-0.463017 150.546 -1.71935 140.035 2.74937 131.908C7.21809 123.782 20.2267 119.218 28.7347 122.939Z" fill="#FFF6E1"/>
<path d="M294.231 108.871C300.926 111.32 309.196 111.256 314.396 106.39C319.469 101.651 320.837 93.2224 327.087 90.2167C335.277 86.2728 344.993 94.6696 353.724 92.1888C363.616 89.374 365.619 75.0454 374.907 70.6244C377.054 69.6066 376.879 73.9958 381.825 71.2923C387.375 68.2708 386.246 56.1528 382.97 50.7458C378.215 42.8897 368.784 38.1188 359.64 38.9298C356.062 39.2479 352.452 40.3611 348.921 39.6614C342.56 38.421 340.97 30.1673 334.831 28.1158C318.181 22.5498 316.336 35.9719 306.731 38.4527C300.29 40.1226 293.691 31.0261 288.14 38.2619C285.119 42.1899 287.854 48.0899 289.89 52.5905C291.925 57.1069 294.502 61.5756 294.724 66.5214C294.963 71.4673 291.798 77.0492 286.852 77.3513C283.56 77.5581 280.634 75.4429 277.533 74.3138C268.214 70.8947 252.995 80.4842 258.609 91.9502C261.773 86.1138 270.266 86.3842 275.259 89.2626C281.254 92.7453 287.647 106.454 294.231 108.871Z" fill="#FFF6E1"/>
<path d="M274.107 253.398C278.051 253.605 283.474 247.069 286.845 248.993C290.216 250.917 294.001 252.762 297.913 252.317C304.418 251.569 309.125 244.747 315.661 245.176C321.497 245.558 326.396 251.744 331.946 250.059C337.21 248.452 337.718 241.264 342.362 238.481C346.688 235.889 352.476 238.243 356.516 241.217C360.571 244.175 364.531 247.928 369.683 248.278C375.695 248.675 378.939 243.236 378.7 237.654C378.462 232.072 371.083 227.143 365.056 227.031C372.578 224.423 382.501 223.708 389.689 227.031C396.877 230.355 400.233 239.69 398.929 247.053C394.317 260.125 386.556 263.035 374.391 263.401C371.544 263.481 368.666 263.242 365.867 263.767C363.084 264.292 360.285 265.819 359.299 268.299C358.44 270.478 359.124 272.959 358.456 275.217C356.945 280.29 349.916 281.515 344.239 281.785C335.667 282.199 325.696 282.055 320.337 275.821C317.41 272.418 316.138 267.409 311.844 265.644C304.37 262.574 294.987 273.261 288.308 268.904C285.382 266.995 282.806 263.942 281.931 260.73C281.056 257.517 278.019 259.966 274.504 259.394C270.767 258.773 268.127 259.394 264.835 260.125C264.231 256.261 270.894 253.239 274.107 253.398Z" fill="#FFF6E1"/>
<path d="M303.349 26.9717C306.148 25.7949 308.152 23.2822 310.76 21.7397C313.097 20.372 315.833 19.8471 318.361 18.8771C320.89 17.907 323.418 16.2531 324.261 13.6769C324.929 11.6413 324.389 9.33539 323.196 7.53836C322.003 5.74133 320.254 4.40544 318.393 3.32405C312.795 0.0480439 305.75 -1.11287 299.723 1.24077C285.903 6.63186 287.732 33.5237 303.349 26.9717Z" fill="#FFF6E1"/>
<path d="M63.0081 115.027C65.7752 115.282 68.4469 114.057 71.1663 113.548C75.2375 112.801 79.404 113.659 83.5388 113.5C89.2957 113.294 94.9571 111.035 99.2827 107.235C102.098 104.754 104.467 101.255 104.022 97.5179C103.545 93.5581 99.9188 90.5524 96.0544 89.5346C92.19 88.5168 88.1188 89.0576 84.159 89.6142C80.1992 90.1549 76.1121 90.6956 72.2636 89.646C68.9558 88.7395 65.9979 86.7198 62.6265 86.1791C57.9828 85.4158 52.9893 87.833 50.7152 91.9519C46.7235 99.1718 54.5637 114.232 63.0081 115.027Z" fill="#FFF6E1"/>
<path d="M402.971 252.222C400.681 257.66 396.388 262.368 390.965 265.342C385.558 268.315 379.053 269.572 372.804 268.824C371.309 271.035 372.438 274.041 374.95 275.217C377.463 276.394 380.421 276.203 383.236 275.981C388.261 275.583 393.382 275.154 398.073 273.42C402.765 271.671 407.043 268.379 408.553 263.91C410.064 259.442 407.631 254.035 402.971 252.222Z" fill="#FFF6E1"/>
<path d="M337.335 232.308C338.91 229.509 340.516 226.233 339.18 223.323C338.003 220.778 334.711 219.427 331.753 219.792C328.795 220.158 326.203 221.955 324.39 224.166C321.576 227.585 318.522 236.109 322.784 239.655C328.7 244.585 335.013 236.443 337.335 232.308Z" fill="#FFF6E1"/>
<path d="M367.066 241.065C367.082 242.751 368.72 244.262 370.533 244.278C372.346 244.293 374.016 242.799 374.063 241.113C374.111 239.427 372.537 237.853 370.724 237.789C368.911 237.71 367.193 239.157 367.082 240.827L367.066 241.065Z" fill="#FFF6E1"/>
<path d="M334.579 15.8686C334.452 13.6263 336.36 11.4634 338.602 11.3043C340.845 11.1453 343.023 13.0219 343.214 15.2483C343.405 17.4906 341.56 19.7012 339.334 19.9238C337.107 20.1464 334.865 18.3335 334.611 16.1071L334.579 15.8686Z" fill="#FFF6E1"/>
<path d="M44.4162 102.424C44.5752 100.834 44.289 99.2432 44.0186 97.6848C43.796 96.3966 43.5574 95.0926 42.969 93.9317C38.9456 85.9802 32.155 97.494 33.0933 102.392C34.2383 108.499 43.7324 109.373 44.4162 102.424Z" fill="#FFF6E1"/>
<path d="M147.366 142.528C149.863 141.033 151.978 138.68 152.614 135.849C153.266 133.002 152.217 129.711 149.736 128.2C146.778 126.387 142.961 127.436 139.669 128.534C136.6 129.552 133.451 130.633 131.018 132.764C120.045 142.433 140.512 146.615 147.366 142.528Z" fill="#FFF6E1"/>
<path d="M180.574 147.743C174.276 147.441 166.484 152.243 164.687 164.823C162.89 177.418 168.281 187.611 152.394 194.497C136.507 201.399 123.609 191.508 108.931 193.893C94.2368 196.294 89.4659 207.999 80.4489 208.285C70.8595 208.587 64.5619 196.597 54.3681 200.795C44.1744 204.993 43.8722 204.389 35.4755 202.894C27.0787 201.399 22.2919 205.884 16.5828 197.503C10.8895 189.106 13.2909 180.71 11.7165 171.772C12.4003 177.259 9.06071 182.411 8.32918 187.898C7.32729 195.452 11.5734 203.021 17.6642 207.601C23.755 212.181 27.4445 206.759 38.3062 210.384C45.542 212.802 52.1099 207.665 61.3972 208.572C70.7322 209.478 70.2233 221.707 89.5613 217.414C96.2723 215.919 100.773 209.462 106.88 206.281C114.354 202.385 123.148 202.194 131.561 202.417C139.974 202.656 148.609 203.196 156.624 200.588C164.639 197.98 171.986 191.301 172.511 182.888C172.94 176.002 168.901 168.719 171.875 162.501C173.338 159.463 175.707 155.01 178.459 153.07C185.519 148.109 190.004 159.177 197.924 150.812C191.054 155.138 186.871 148.045 180.574 147.743Z" fill="#D197B1"/>
<path d="M275.233 89.3943C281.228 92.8612 287.621 106.585 294.205 108.987C300.9 111.436 309.17 111.372 314.37 106.506C319.443 101.767 320.811 93.3382 327.061 90.3325C335.251 86.3886 344.967 94.7854 353.698 92.3046C363.59 89.4898 365.593 75.1612 374.881 70.7402C377.028 69.7224 376.853 74.1116 381.798 71.4081C387.349 68.3866 386.219 56.2686 382.943 50.8616C381.385 48.2694 379.302 46.0271 376.9 44.1982C382.721 49.8597 382.148 60.3714 378.936 63.3135C375.342 66.6054 372.94 61.8186 366.039 66.6054C359.137 71.4081 355.845 82.1903 347.448 84.2894C339.051 86.3886 332.165 79.2005 321.669 81.5859C311.174 83.9714 312.971 97.7751 306.387 99.5721C299.787 101.369 294.698 98.6657 289.593 94.1811C284.488 89.6965 279.097 79.7889 268.617 80.6954C258.121 81.6018 258.567 92.066 258.567 92.066C261.747 86.2455 270.239 86.5 275.233 89.3943Z" fill="#D197B1"/>
<path d="M393.547 233.599C398.493 240.119 394.899 249.788 386.581 254.511C375.004 261.079 365.224 257.215 359.372 261.032C353.519 264.848 354.426 271.591 350.148 274.295C345.87 276.998 333.291 275.647 326.548 272.052C319.805 268.458 320.696 261.032 313.062 259.68C305.413 258.328 298.225 265.071 292.373 264.403C286.52 263.735 287.204 256.754 283.61 255.179C280.016 253.605 278.664 255.625 273.718 256.086C268.773 256.531 264.797 260.125 264.797 260.125C268.089 259.394 270.729 258.789 274.466 259.394C277.98 259.966 281.018 257.517 281.893 260.73C282.767 263.942 285.343 266.995 288.27 268.904C294.965 273.261 304.332 262.574 311.806 265.644C316.1 267.409 317.372 272.402 320.298 275.821C325.657 282.055 335.628 282.199 344.2 281.785C349.877 281.515 356.907 280.29 358.417 275.217C359.085 272.975 358.401 270.494 359.26 268.299C360.246 265.819 363.029 264.308 365.828 263.767C368.611 263.242 371.505 263.481 374.352 263.401C386.534 263.035 394.278 260.125 398.89 247.053C400.21 239.69 396.839 230.371 389.651 227.031C382.463 223.708 372.539 224.423 365.017 227.031C378.36 224.296 388.601 227.079 393.547 233.599Z" fill="#D197B1"/>
</svg>
