<svg width="179" height="206" viewBox="0 0 179 206" fill="none" xmlns="http://www.w3.org/2000/svg">
<path d="M110.1 4.04594C97.695 -0.491844 82.3726 -0.373986 72.7372 8.64265C63.3375 17.4235 60.8034 33.0407 49.2232 38.6098C34.0482 45.9174 16.0444 30.3591 -0.132466 34.9558C-18.4604 40.1713 -22.1731 66.7203 -39.3813 74.9118C-43.3592 76.7977 -43.0351 68.6651 -52.199 73.6743C-62.4827 79.2729 -60.3906 101.726 -54.3206 111.744C-45.5102 126.301 -28.0368 135.141 -11.0938 133.638C-4.46396 133.049 2.22483 130.986 8.7663 132.282C20.5527 134.581 23.4993 149.874 34.8733 153.675C65.7243 163.988 69.1423 139.119 86.9398 134.522C98.8736 131.428 111.102 148.283 121.386 134.875C126.984 127.597 121.916 116.665 118.144 108.326C114.373 99.9581 109.599 91.6781 109.187 82.5142C108.745 73.3502 114.609 63.0076 123.772 62.4478C129.872 62.0647 135.294 65.9838 141.04 68.0759C158.307 74.4111 186.506 56.643 176.104 35.3979C170.241 46.212 154.506 45.711 145.253 40.3777C134.145 33.9246 122.299 8.52479 110.1 4.04594Z" fill="#FFF6E1"/>
<path d="M93.2049 155.795C88.0188 157.976 84.3061 162.631 79.4736 165.49C75.1421 168.024 70.074 168.996 65.3889 170.794C60.7037 172.591 56.0186 175.656 54.4569 180.429C53.2193 184.201 54.2212 188.473 56.4311 191.803C58.6411 195.133 61.8824 197.608 65.3299 199.611C75.702 205.681 88.7555 207.833 99.9231 203.472C125.529 193.483 122.141 143.655 93.2049 155.795Z" fill="#FFF6E1"/>
<path d="M35.3409 176.367C35.5766 180.522 32.0407 184.53 27.886 184.824C23.7313 185.119 19.6944 181.642 19.3408 177.517C18.9872 173.362 22.4053 169.266 26.5306 168.854C30.6558 168.441 34.8105 171.8 35.282 175.926L35.3409 176.367Z" fill="#FFF6E1"/>
<path d="M145.301 40.1349C134.192 33.7112 122.347 8.28199 110.148 3.83261C97.7427 -0.705177 82.4204 -0.587319 72.785 8.4293C63.3853 17.2102 60.8512 32.8274 49.271 38.3965C34.096 45.704 16.0922 30.1458 -0.0846937 34.7425C-18.4126 39.958 -22.1253 66.5069 -39.3335 74.6985C-43.3114 76.5843 -42.9873 68.4517 -52.1512 73.461C-62.4349 79.0595 -60.3428 101.513 -54.2728 111.531C-51.3851 116.334 -47.5251 120.489 -43.0757 123.877C-53.8603 113.387 -52.7995 93.9105 -46.8473 88.4593C-40.188 82.3598 -35.7386 91.2291 -22.9503 82.3598C-10.1621 73.461 -4.06259 53.483 11.4955 49.5935C27.0536 45.704 39.8124 59.0227 59.2601 54.6028C78.7077 50.1829 75.378 24.6063 87.5769 21.2767C99.8054 17.947 109.235 22.9561 118.693 31.2655C128.152 39.575 138.141 57.9325 157.559 56.2529C177.007 54.5733 176.181 35.1846 176.181 35.1846C170.288 45.9692 154.553 45.4977 145.301 40.1349Z" fill="#D197B1"/>
</svg>
