<svg width="1512" height="540" viewBox="0 0 1512 540" fill="none" xmlns="http://www.w3.org/2000/svg">
<path d="M962.166 306.837C973.915 306.837 984.346 301.206 990.925 292.511C993.268 292.995 995.701 293.243 998.191 293.243C1011.19 293.243 1022.59 286.35 1028.92 276.033C1038.86 282.926 1050.92 286.969 1063.93 286.969C1096.41 286.969 1122.99 261.797 1125.28 229.911C1129.9 231.296 1134.8 232.051 1139.88 232.051C1166.42 232.051 1188.19 211.688 1190.44 185.738C1196.49 197.136 1208.48 204.907 1222.28 204.907C1235.03 204.907 1246.23 198.273 1252.63 188.283C1259.22 195.458 1268.67 199.963 1279.18 199.963C1281.8 199.963 1284.35 199.681 1286.81 199.141C1292.59 211.327 1305 219.752 1319.38 219.752C1330.51 219.752 1340.46 214.706 1347.07 206.766C1352.42 209.908 1358.64 211.721 1365.3 211.721C1375.01 211.721 1383.8 207.881 1390.28 201.63C1396.5 212.453 1408.16 219.741 1421.54 219.741C1421.7 219.741 1421.84 219.741 1421.99 219.729C1421.7 221.588 1421.54 223.502 1421.54 225.44C1421.54 245.33 1437.67 261.459 1457.56 261.459C1460.14 261.459 1462.66 261.188 1465.08 260.67C1464.54 263.159 1464.23 265.75 1464.23 268.408C1464.23 288.299 1480.36 304.427 1500.26 304.427C1516.38 304.427 1530.02 293.84 1534.63 279.243C1535.73 279.344 1536.84 279.401 1537.98 279.401C1557.88 279.401 1574.01 263.272 1574.01 243.382C1574.01 231.927 1568.65 221.723 1560.31 215.123C1571.28 208.951 1578.7 197.203 1578.7 183.71C1578.7 176.603 1576.63 169.981 1573.08 164.394C1579.19 157.941 1582.93 149.246 1582.93 139.661C1582.93 119.77 1566.8 103.642 1546.9 103.642C1538.38 103.642 1530.55 106.615 1524.37 111.56C1518.42 99.8798 1506.28 91.8718 1492.27 91.8718C1484.54 91.8718 1477.4 94.3046 1471.53 98.4494C1466.06 95.0931 1459.61 93.1446 1452.72 93.1446C1438.54 93.1446 1426.27 101.344 1420.4 113.249C1414.87 109.791 1408.34 107.786 1401.34 107.786C1394.35 107.786 1387.46 109.904 1381.84 113.519C1375.26 106.424 1365.87 101.986 1355.43 101.986C1349.99 101.986 1344.83 103.202 1340.21 105.354C1335.58 103.191 1330.43 101.986 1324.99 101.986C1308.01 101.986 1293.8 113.722 1289.98 129.524C1286.58 128.454 1282.96 127.88 1279.21 127.88C1266.46 127.88 1255.26 134.514 1248.86 144.504C1242.27 137.329 1232.82 132.824 1222.31 132.824C1204.73 132.824 1190.1 145.427 1186.93 162.097C1179.37 143.558 1161.17 130.481 1139.9 130.481C1115.77 130.481 1095.59 147.308 1090.43 169.868C1082.41 166.039 1073.44 163.899 1063.97 163.899C1031.32 163.899 1004.62 189.319 1002.57 221.453C1001.14 221.284 999.7 221.182 998.225 221.182C986.476 221.182 976.044 226.814 969.466 235.509C967.123 235.024 964.69 234.777 962.2 234.777C942.307 234.777 926.176 250.905 926.176 270.796C926.176 290.686 942.307 306.815 962.2 306.815L962.166 306.837Z" fill="#D197B1"/>
<path d="M605.02 306.837C593.271 306.837 582.839 301.206 576.261 292.511C573.918 292.995 571.485 293.243 568.995 293.243C555.996 293.243 544.596 286.35 538.265 276.033C528.33 282.926 516.265 286.969 503.255 286.969C470.778 286.969 444.194 261.797 441.907 229.911C437.289 231.296 432.388 232.051 427.308 232.051C400.769 232.051 378.994 211.688 376.741 185.738C370.692 197.136 358.706 204.907 344.907 204.907C332.155 204.907 320.958 198.273 314.56 188.283C307.97 195.458 298.519 199.963 288.009 199.963C285.384 199.963 282.839 199.681 280.372 199.141C274.593 211.327 262.191 219.752 247.806 219.752C236.676 219.752 226.729 214.706 220.117 206.766C214.766 209.908 208.548 211.721 201.891 211.721C192.181 211.721 183.383 207.881 176.906 201.63C170.688 212.453 159.029 219.741 145.646 219.741C145.488 219.741 145.342 219.741 145.196 219.729C145.489 221.588 145.646 223.502 145.646 225.44C145.646 245.33 129.515 261.459 109.622 261.459C107.042 261.459 104.53 261.188 102.108 260.67C102.649 263.159 102.953 265.75 102.953 268.408C102.953 288.298 86.822 304.427 66.9286 304.427C50.8088 304.427 37.1673 293.84 32.5601 279.243C31.4561 279.344 30.3409 279.401 29.2032 279.401C9.30976 279.401 -6.82122 263.272 -6.82122 243.382C-6.82122 231.927 -1.45922 221.723 6.87666 215.123C-4.09515 208.951 -11.5185 197.203 -11.5185 183.71C-11.5185 176.603 -9.44579 169.981 -5.89745 164.394C-12.0029 157.941 -15.7427 149.245 -15.7427 139.661C-15.7427 119.77 0.388262 103.642 20.2816 103.642C28.809 103.642 36.638 106.615 42.811 111.56C48.77 99.8798 60.9021 91.8718 74.9154 91.8718C82.6429 91.8718 89.7846 94.3046 95.6535 98.4494C101.128 95.093 107.572 93.1445 114.466 93.1445C128.648 93.1445 140.915 101.344 146.784 113.249C152.315 109.791 158.848 107.786 165.844 107.786C173.031 107.786 179.722 109.904 185.343 113.519C191.921 106.424 201.316 101.986 211.759 101.986C217.199 101.986 222.359 103.202 226.977 105.354C231.607 103.191 236.755 101.986 242.196 101.986C259.172 101.986 273.388 113.722 277.206 129.524C280.608 128.454 284.224 127.88 287.975 127.88C300.727 127.88 311.924 134.514 318.322 144.504C324.912 137.329 334.363 132.824 344.873 132.824C362.457 132.824 377.09 145.427 380.256 162.097C387.814 143.558 406.018 130.481 427.286 130.481C451.414 130.481 471.601 147.308 476.76 169.868C484.78 166.039 493.747 163.899 503.221 163.899C535.866 163.899 562.563 189.319 564.613 221.453C566.044 221.284 567.486 221.182 568.961 221.182C580.71 221.182 591.142 226.814 597.72 235.509C600.063 235.025 602.496 234.777 604.986 234.777C624.879 234.777 641.01 250.905 641.01 270.796C641.01 290.686 624.879 306.815 604.986 306.815L605.02 306.837Z" fill="#D197B1"/>
<path d="M956.85 299.696C968.599 299.696 979.03 294.065 985.609 285.37C987.952 285.854 990.385 286.102 992.874 286.102C1005.87 286.102 1017.27 279.209 1023.6 268.892C1033.54 275.785 1045.6 279.828 1058.61 279.828C1091.09 279.828 1117.68 254.656 1119.96 222.77C1124.58 224.155 1129.48 224.91 1134.56 224.91C1161.1 224.91 1182.88 204.546 1185.13 178.597C1191.18 189.995 1203.16 197.766 1216.96 197.766C1229.71 197.766 1240.91 191.132 1247.31 181.142C1253.9 188.316 1263.35 192.822 1273.86 192.822C1276.49 192.822 1279.03 192.54 1281.5 191.999C1287.28 204.186 1299.68 212.611 1314.06 212.611C1325.19 212.611 1335.14 207.565 1341.75 199.625C1347.1 202.767 1353.32 204.58 1359.98 204.58C1369.69 204.58 1378.49 200.74 1384.96 194.489C1391.18 205.312 1402.84 212.6 1416.22 212.6C1416.38 212.6 1416.53 212.6 1416.67 212.588C1416.38 214.447 1416.22 216.361 1416.22 218.299C1416.22 238.189 1432.35 254.318 1452.25 254.318C1454.83 254.318 1457.34 254.047 1459.76 253.529C1459.22 256.018 1458.92 258.609 1458.92 261.267C1458.92 281.157 1475.05 297.286 1494.94 297.286C1511.06 297.286 1524.7 286.699 1529.31 272.102C1530.41 272.203 1531.53 272.26 1532.67 272.26C1552.56 272.26 1568.69 256.131 1568.69 236.241C1568.69 224.786 1563.33 214.582 1554.99 207.982C1565.96 201.81 1573.39 190.062 1573.39 176.569C1573.39 169.462 1571.32 162.84 1567.77 157.253C1573.87 150.799 1577.61 142.104 1577.61 132.52C1577.61 112.629 1561.48 96.5005 1541.59 96.5005C1533.06 96.5005 1525.23 99.474 1519.06 104.418C1513.1 92.7387 1500.97 84.7307 1486.95 84.7307C1479.23 84.7307 1472.08 87.1635 1466.22 91.3083C1460.74 87.9519 1454.3 86.0034 1447.4 86.0034C1433.22 86.0034 1420.95 94.2029 1415.09 106.108C1409.55 102.65 1403.02 100.645 1396.03 100.645C1389.03 100.645 1382.15 102.763 1376.53 106.378C1369.95 99.2825 1360.55 94.8449 1350.11 94.8449C1344.67 94.8449 1339.51 96.0613 1334.89 98.2125C1330.26 96.05 1325.11 94.8449 1319.67 94.8449C1302.7 94.8449 1288.48 106.581 1284.66 122.383C1281.26 121.313 1277.65 120.739 1273.89 120.739C1261.14 120.739 1249.95 127.372 1243.55 137.363C1236.96 130.188 1227.51 125.683 1217 125.683C1199.41 125.683 1184.78 138.286 1181.61 154.955C1174.06 136.417 1155.85 123.34 1134.58 123.34C1110.46 123.34 1090.27 140.167 1085.11 162.727C1077.09 158.898 1068.12 156.758 1058.65 156.758C1026 156.758 999.306 182.178 997.256 214.311C995.826 214.143 994.384 214.041 992.908 214.041C981.159 214.041 970.728 219.673 964.149 228.368C961.806 227.883 959.373 227.636 956.884 227.636C936.99 227.636 920.859 243.764 920.859 263.655C920.859 283.545 936.99 299.674 956.884 299.674L956.85 299.696Z" fill="#FFF6E1"/>
<path d="M599.692 299.696C587.942 299.696 577.511 294.065 570.933 285.37C568.59 285.854 566.157 286.102 563.667 286.102C550.668 286.102 539.268 279.209 532.937 268.892C523.002 275.785 510.937 279.828 497.926 279.828C465.45 279.828 438.866 254.656 436.579 222.77C431.961 224.155 427.06 224.91 421.98 224.91C395.44 224.91 373.666 204.546 371.413 178.597C365.364 189.995 353.378 197.766 339.579 197.766C326.827 197.766 315.63 191.132 309.232 181.142C302.642 188.316 293.191 192.822 282.681 192.822C280.056 192.822 277.511 192.54 275.044 191.999C269.265 204.186 256.862 212.611 242.478 212.611C231.348 212.611 221.401 207.565 214.789 199.625C209.438 202.767 203.22 204.58 196.563 204.58C186.853 204.58 178.055 200.74 171.578 194.489C165.36 205.312 153.701 212.6 140.318 212.6C140.16 212.6 140.014 212.599 139.868 212.588C140.16 214.447 140.318 216.361 140.318 218.299C140.318 238.189 124.187 254.318 104.294 254.318C101.714 254.318 99.202 254.047 96.7802 253.529C97.3208 256.018 97.625 258.609 97.625 261.267C97.625 281.157 81.494 297.286 61.6006 297.286C45.4808 297.286 31.8393 286.699 27.2321 272.102C26.1281 272.203 25.0129 272.26 23.8752 272.26C3.98175 272.26 -12.1492 256.131 -12.1492 236.241C-12.1492 224.786 -6.78716 214.582 1.54865 207.982C-9.42309 201.81 -16.8466 190.062 -16.8466 176.569C-16.8466 169.462 -14.7739 162.84 -11.2256 157.253C-17.331 150.799 -21.0708 142.104 -21.0708 132.52C-21.0708 112.629 -4.93974 96.5005 14.9537 96.5005C23.481 96.5005 31.31 99.4739 37.483 104.418C43.442 92.7387 55.5741 84.7307 69.5874 84.7307C77.3149 84.7307 84.4566 87.1635 90.3255 91.3083C95.8001 87.9519 102.244 86.0034 109.138 86.0034C123.32 86.0034 135.587 94.2029 141.456 106.108C146.987 102.65 153.52 100.645 160.516 100.645C167.703 100.645 174.394 102.763 180.015 106.378C186.593 99.2825 195.988 94.8449 206.431 94.8449C211.871 94.8449 217.031 96.0613 221.649 98.2125C226.279 96.05 231.427 94.8449 236.868 94.8449C253.844 94.8449 268.06 106.581 271.878 122.383C275.28 121.313 278.896 120.739 282.647 120.739C295.399 120.739 306.596 127.372 312.994 137.363C319.584 130.188 329.035 125.683 339.545 125.683C357.129 125.683 371.762 138.286 374.928 154.955C382.486 136.417 400.69 123.34 421.958 123.34C446.086 123.34 466.273 140.167 471.432 162.727C479.452 158.898 488.419 156.758 497.893 156.758C530.538 156.758 557.235 182.178 559.285 214.312C560.716 214.143 562.158 214.041 563.633 214.041C575.382 214.041 585.813 219.673 592.392 228.368C594.735 227.883 597.168 227.636 599.658 227.636C619.551 227.636 635.682 243.764 635.682 263.655C635.682 283.545 619.551 299.674 599.658 299.674L599.692 299.696Z" fill="#FFF6E1"/>
<path d="M109.733 101.719L1402.61 101.719C1323.8 111.231 1250.15 128.316 1184.32 151.528C1003.83 211.09 880.022 318.213 868.737 439.747L868.539 439.747C865.153 495.247 816.148 539.262 756.172 539.262C696.195 539.262 647.191 495.247 643.804 439.747L643.607 439.747C632.321 318.213 508.518 211.09 328.019 151.528C262.197 128.316 188.546 111.231 109.733 101.719Z" fill="#FFF6E1"/>
<rect x="-0.40918" y="-120.312" width="1534.99" height="238.015" fill="#FFF6E1"/>
</svg>
