<svg width="36" height="36" viewBox="0 0 36 36" fill="none" xmlns="http://www.w3.org/2000/svg">
<mask id="mask0_277_2301" style="mask-type:alpha" maskUnits="userSpaceOnUse" x="0" y="0" width="36" height="36">
<rect width="36" height="36" fill="#D9D9D9"/>
</mask>
<g mask="url(#mask0_277_2301)">
<path d="M11.8125 27C9.8875 27 8.425 26.2875 7.425 24.8625C6.425 23.4375 5.95 21.8375 6 20.0625L5.325 19.05C5.05 18.625 4.59375 17.6625 3.95625 16.1625C3.31875 14.6625 3 12.775 3 10.5C3 7.925 3.6375 5.78125 4.9125 4.06875C6.1875 2.35625 7.8 1.5 9.75 1.5C11.875 1.5 13.5312 2.44375 14.7188 4.33125C15.9063 6.21875 16.5 8.275 16.5 10.5C16.5 11.95 16.3 13.2875 15.9 14.5125C15.5 15.7375 15.15 16.725 14.85 17.475L15.15 17.9625C15.35 18.3125 15.625 18.8688 15.975 19.6313C16.325 20.3938 16.5 21.1875 16.5 22.0125C16.5 23.4375 16.0563 24.625 15.1688 25.575C14.2813 26.525 13.1625 27 11.8125 27ZM7.875 17.4L12 16.575C12.325 15.775 12.6562 14.8625 12.9937 13.8375C13.3312 12.8125 13.5 11.7 13.5 10.5C13.5 9 13.1563 7.625 12.4688 6.375C11.7812 5.125 10.875 4.5 9.75 4.5C8.625 4.5 7.71875 5.125 7.03125 6.375C6.34375 7.625 6 9 6 10.5C6 12.075 6.21875 13.4688 6.65625 14.6813C7.09375 15.8938 7.5 16.8 7.875 17.4ZM11.8125 24C12.2875 24 12.6875 23.825 13.0125 23.475C13.3375 23.125 13.5 22.6375 13.5 22.0125C13.5 21.5875 13.4 21.15 13.2 20.7C13 20.25 12.8 19.85 12.6 19.5L9 20.25C9 21.25 9.21875 22.125 9.65625 22.875C10.0938 23.625 10.8125 24 11.8125 24ZM24.1875 34.5C22.8375 34.5 21.7187 34.025 20.8312 33.075C19.9437 32.125 19.5 30.9375 19.5 29.5125C19.5 28.6875 19.675 27.8937 20.025 27.1312C20.375 26.3687 20.65 25.8125 20.85 25.4625L21.15 24.975C20.85 24.225 20.5 23.2375 20.1 22.0125C19.7 20.7875 19.5 19.45 19.5 18C19.5 15.775 20.0937 13.7188 21.2812 11.8313C22.4688 9.94375 24.125 9 26.25 9C28.2 9 29.8125 9.85625 31.0875 11.5688C32.3625 13.2813 33 15.425 33 18C33 20.275 32.6813 22.1562 32.0438 23.6437C31.4063 25.1312 30.95 26.0875 30.675 26.5125L30 27.5625C30.025 29.3375 29.5438 30.9375 28.5563 32.3625C27.5688 33.7875 26.1125 34.5 24.1875 34.5ZM28.125 24.9C28.5 24.3 28.9062 23.4 29.3438 22.2C29.7813 21 30 19.6 30 18C30 16.5 29.6563 15.125 28.9688 13.875C28.2812 12.625 27.375 12 26.25 12C25.125 12 24.2188 12.625 23.5312 13.875C22.8437 15.125 22.5 16.5 22.5 18C22.5 19.2 22.6688 20.3063 23.0063 21.3188C23.3438 22.3313 23.675 23.25 24 24.075L28.125 24.9ZM24.1875 31.5C25.1875 31.5 25.9062 31.125 26.3438 30.375C26.7813 29.625 27 28.75 27 27.75L23.4 27C23.2 27.35 23 27.75 22.8 28.2C22.6 28.65 22.5 29.0875 22.5 29.5125C22.5 30.0125 22.6563 30.4687 22.9688 30.8812C23.2812 31.2937 23.6875 31.5 24.1875 31.5Z" fill="#D197B1"/>
</g>
</svg>
