<svg width="36" height="36" viewBox="0 0 36 36" fill="none" xmlns="http://www.w3.org/2000/svg">
<mask id="mask0_277_2295" style="mask-type:alpha" maskUnits="userSpaceOnUse" x="0" y="0" width="36" height="36">
<rect width="36" height="36" fill="#D9D9D9"/>
</mask>
<g mask="url(#mask0_277_2295)">
<path d="M24.6 31.5L22.5 29.4L24.8625 27L22.5 24.6375L24.6 22.5L27 24.9L29.3625 22.5L31.5 24.6375L29.1 27L31.5 29.4L29.3625 31.5L27 29.1375L24.6 31.5ZM9 28.5C9.425 28.5 9.78125 28.3562 10.0688 28.0687C10.3563 27.7812 10.5 27.425 10.5 27C10.5 26.575 10.3563 26.2188 10.0688 25.9313C9.78125 25.6438 9.425 25.5 9 25.5C8.575 25.5 8.21875 25.6438 7.93125 25.9313C7.64375 26.2188 7.5 26.575 7.5 27C7.5 27.425 7.64375 27.7812 7.93125 28.0687C8.21875 28.3562 8.575 28.5 9 28.5ZM9 31.5C7.75 31.5 6.6875 31.0625 5.8125 30.1875C4.9375 29.3125 4.5 28.25 4.5 27C4.5 25.75 4.9375 24.6875 5.8125 23.8125C6.6875 22.9375 7.75 22.5 9 22.5C9.925 22.5 10.7687 22.7562 11.5312 23.2687C12.2938 23.7812 12.85 24.475 13.2 25.35C14.175 25.075 14.9688 24.5375 15.5813 23.7375C16.1938 22.9375 16.5 22.025 16.5 21V15C16.5 12.925 17.2313 11.1563 18.6938 9.69375C20.1563 8.23125 21.925 7.5 24 7.5H25.725L23.3625 5.1375L25.5 3L31.5 9L25.5 15L23.3625 12.9L25.725 10.5H24C22.75 10.5 21.6875 10.9375 20.8125 11.8125C19.9375 12.6875 19.5 13.75 19.5 15V21C19.5 22.825 18.9125 24.4313 17.7375 25.8188C16.5625 27.2063 15.075 28.0625 13.275 28.3875C12.975 29.3125 12.4313 30.0625 11.6438 30.6375C10.8563 31.2125 9.975 31.5 9 31.5ZM6.6 13.5L4.5 11.4L6.8625 9L4.5 6.6375L6.6 4.5L9 6.9L11.3625 4.5L13.5 6.6375L11.1 9L13.5 11.4L11.3625 13.5L9 11.1375L6.6 13.5Z" fill="#D197B1"/>
</g>
</svg>
